<svg xmlns="http://www.w3.org/2000/svg" viewBox="0 0 7081 931" fill="url(#g)"><defs><linearGradient id="g" gradientUnits="userSpaceOnUse" x1="0" y1="113" x2="0" y2="818"><stop offset="0" stop-color="#54A8B4"/><stop offset="1" stop-color="#8E78C8"/></linearGradient></defs><path transform="translate(0.0,817.8) scale(1,-1)" d="M42 210H224Q228 171 251.0 150.5Q274 130 311 130Q349 130 371.0 147.5Q393 165 393 196Q393 222 375.5 239.0Q358 256 332.5 267.0Q307 278 260 292Q192 313 149.0 334.0Q106 355 75.0 396.0Q44 437 44 503Q44 601 115.0 656.5Q186 712 300 712Q416 712 487.0 656.5Q558 601 563 502H378Q376 536 353.0 555.5Q330 575 294 575Q263 575 244.0 558.5Q225 542 225 511Q225 477 257.0 458.0Q289 439 357 417Q425 394 467.5 373.0Q510 352 541.0 312.0Q572 272 572 209Q572 149 541.5 100.0Q511 51 453.0 22.0Q395 -7 316 -7Q239 -7 178.0 18.0Q117 43 80.5 92.0Q44 141 42 210Z"/><path transform="translate(645.0,817.8) scale(1,-1)" d="M567 702V565H381V0H210V565H24V702Z"/><path transform="translate(1266.0,817.8) scale(1,-1)" d="M499 124H237L195 0H16L270 702H468L722 0H541ZM455 256 368 513 282 256Z"/><path transform="translate(2033.0,817.8) scale(1,-1)" d="M420 0 274 265H233V0H62V702H349Q432 702 490.5 673.0Q549 644 578.0 593.5Q607 543 607 481Q607 411 567.5 356.0Q528 301 451 278L613 0ZM233 386H339Q386 386 409.5 409.0Q433 432 433 474Q433 514 409.5 537.0Q386 560 339 560H233Z"/><path transform="translate(2957.0,817.8) scale(1,-1)" d="M233 132H457V0H62V702H233Z"/><path transform="translate(3464.0,817.8) scale(1,-1)" d="M499 124H237L195 0H16L270 702H468L722 0H541ZM455 256 368 513 282 256Z"/><path transform="translate(4231.0,817.8) scale(1,-1)" d="M693 351Q693 248 647.5 168.0Q602 88 518.5 44.0Q435 0 325 0H62V702H325Q436 702 519.0 658.0Q602 614 647.5 534.5Q693 455 693 351ZM519 351Q519 448 465.0 502.0Q411 556 314 556H233V148H314Q411 148 465.0 201.0Q519 254 519 351Z"/><path transform="translate(4988.0,817.8) scale(1,-1)" d="M693 351Q693 248 647.5 168.0Q602 88 518.5 44.0Q435 0 325 0H62V702H325Q436 702 519.0 658.0Q602 614 647.5 534.5Q693 455 693 351ZM519 351Q519 448 465.0 502.0Q411 556 314 556H233V148H314Q411 148 465.0 201.0Q519 254 519 351Z"/><path transform="translate(5745.0,817.8) scale(1,-1)" d="M233 565V423H462V291H233V137H492V0H62V702H492V565Z"/><path transform="translate(6316.0,817.8) scale(1,-1)" d="M420 0 274 265H233V0H62V702H349Q432 702 490.5 673.0Q549 644 578.0 593.5Q607 543 607 481Q607 411 567.5 356.0Q528 301 451 278L613 0ZM233 386H339Q386 386 409.5 409.0Q433 432 433 474Q433 514 409.5 537.0Q386 560 339 560H233Z"/><rect x="3638.5" y="362.8" width="388.0" height="110.0" rx="55.0"/></svg>